<svg class="ic-logo" viewBox="0 0 111 22" fill="none" xmlns="http://www.w3.org/2000/svg">
    <g filter="url(#filter0_d)">
        <path d="M2.86969 5.288C4.26169 5.288 5.19769 4.376 5.19769 3.128C5.19769 1.976 4.26169 1.112 2.86969 1.112C1.47769 1.112 0.541688 2.024 0.541688 3.2C0.541688 4.376 1.47769 5.288 2.86969 5.288ZM0.997688 20H4.74169V7.088H0.997688V20ZM15.1044 6.896C13.3524 6.896 11.8404 7.496 10.8324 8.6V7.088H7.25644V20H11.0004V13.616C11.0004 11.24 12.2964 10.136 14.0964 10.136C15.7524 10.136 16.7124 11.096 16.7124 13.184V20H20.4564V12.608C20.4564 8.672 18.1524 6.896 15.1044 6.896ZM27.2342 20.192C31.0982 20.192 33.3302 18.488 33.3302 16.088C33.3302 11 25.5302 13.136 25.5302 10.928C25.5302 10.256 26.2502 9.728 27.9302 9.728C29.1062 9.728 30.3782 9.968 31.6502 10.688L32.8982 8.024C31.6742 7.304 29.7062 6.896 27.9302 6.896C24.1622 6.896 21.9542 8.624 21.9542 11.072C21.9542 16.232 29.7542 14.072 29.7542 16.184C29.7542 16.904 29.1062 17.36 27.3782 17.36C25.7942 17.36 24.0422 16.856 22.8902 16.112L21.6422 18.8C22.8422 19.592 25.0502 20.192 27.2342 20.192ZM42.0002 16.736C41.5922 17.048 41.0402 17.216 40.4882 17.216C39.4802 17.216 38.8802 16.616 38.8802 15.512V10.256H42.0962V7.376H38.8802V4.232H35.1362V7.376H33.1442V10.256H35.1362V15.56C35.1362 18.632 36.9122 20.192 39.9602 20.192C41.1122 20.192 42.2402 19.928 43.0082 19.376L42.0002 16.736ZM49.3579 6.896C47.2939 6.896 45.2059 7.448 43.7899 8.456L45.1339 11.072C46.0699 10.328 47.4859 9.872 48.8539 9.872C50.8699 9.872 51.8299 10.808 51.8299 12.416H48.8539C44.9179 12.416 43.3099 14 43.3099 16.28C43.3099 18.512 45.1099 20.192 48.1339 20.192C50.0299 20.192 51.3739 19.568 52.0699 18.392V20H55.5739V12.632C55.5739 8.72 53.2939 6.896 49.3579 6.896ZM49.0699 17.672C47.7499 17.672 46.9579 17.048 46.9579 16.112C46.9579 15.248 47.5099 14.6 49.2619 14.6H51.8299V15.92C51.3979 17.096 50.3179 17.672 49.0699 17.672Z" fill="#051C3A"></path>
        <path d="M64.2424 20.192C66.9544 20.192 69.0904 18.992 70.0264 16.928L67.1224 15.344C66.4264 16.592 65.3944 17.12 64.2184 17.12C62.3224 17.12 60.8344 15.8 60.8344 13.544C60.8344 11.288 62.3224 9.968 64.2184 9.968C65.3944 9.968 66.4264 10.52 67.1224 11.744L70.0264 10.184C69.0904 8.072 66.9544 6.896 64.2424 6.896C60.0424 6.896 57.0424 9.656 57.0424 13.544C57.0424 17.432 60.0424 20.192 64.2424 20.192ZM76.4301 6.896C74.3661 6.896 72.2781 7.448 70.8621 8.456L72.2061 11.072C73.1421 10.328 74.5581 9.872 75.9261 9.872C77.9421 9.872 78.9021 10.808 78.9021 12.416H75.9261C71.9901 12.416 70.3821 14 70.3821 16.28C70.3821 18.512 72.1821 20.192 75.2061 20.192C77.1021 20.192 78.4461 19.568 79.1421 18.392V20H82.6461V12.632C82.6461 8.72 80.3661 6.896 76.4301 6.896ZM76.1421 17.672C74.8221 17.672 74.0301 17.048 74.0301 16.112C74.0301 15.248 74.5821 14.6 76.3341 14.6H78.9021V15.92C78.4701 17.096 77.3901 17.672 76.1421 17.672ZM89.4186 20.192C93.2826 20.192 95.5146 18.488 95.5146 16.088C95.5146 11 87.7146 13.136 87.7146 10.928C87.7146 10.256 88.4346 9.728 90.1146 9.728C91.2906 9.728 92.5626 9.968 93.8346 10.688L95.0826 8.024C93.8586 7.304 91.8906 6.896 90.1146 6.896C86.3466 6.896 84.1386 8.624 84.1386 11.072C84.1386 16.232 91.9386 14.072 91.9386 16.184C91.9386 16.904 91.2906 17.36 89.5626 17.36C87.9786 17.36 86.2266 16.856 85.0746 16.112L83.8266 18.8C85.0266 19.592 87.2346 20.192 89.4186 20.192ZM104.713 6.896C103.057 6.896 101.617 7.424 100.609 8.432V2.192H96.8646V20H100.609V13.616C100.609 11.24 101.905 10.136 103.705 10.136C105.361 10.136 106.321 11.096 106.321 13.184V20H110.065V12.608C110.065 8.672 107.761 6.896 104.713 6.896Z" fill="#0BDDFA"></path>
    </g>
    <defs>
        <filter id="filter0_d" x="-83.4583" y="-74.888" width="277.523" height="187.08" filterUnits="userSpaceOnUse" color-interpolation-filters="sRGB">
            <feFlood flood-opacity="0" result="BackgroundImageFix"></feFlood>
            <feColorMatrix in="SourceAlpha" type="matrix" values="0 0 0 0 0 0 0 0 0 0 0 0 0 0 0 0 0 0 127 0"></feColorMatrix>
            <feMorphology radius="4" operator="dilate" in="SourceAlpha" result="effect1_dropShadow"></feMorphology>
            <feOffset dy="8"></feOffset>
            <feGaussianBlur stdDeviation="40"></feGaussianBlur>
            <feColorMatrix type="matrix" values="0 0 0 0 0.298958 0 0 0 0 0.318604 0 0 0 0 0.341667 0 0 0 0.1 0"></feColorMatrix>
            <feBlend mode="normal" in2="BackgroundImageFix" result="effect1_dropShadow"></feBlend>
            <feBlend mode="normal" in="SourceGraphic" in2="effect1_dropShadow" result="shape"></feBlend>
        </filter>
    </defs>
</svg>
